# xmcd
#
# Track frame offsets:
#	150
#	13295
#	23979
#	37678
#	52654
#	66505
#	77588
#	99223
#	115113
#	129041
#	143323
#	157750
#	174968
#	189466
#
# Disc length: 3131 seconds
#
# Revision: 1
# Processed by: cddbd v1.5.2PL0 Copyright (c) Steve Scherf et al.
# Submitted via: audiograbber 1.83.01
#
DISCID=950c390e
DTITLE=Mistrinanka - Hallelujah
DYEAR=2011
DGENRE=Folklore
TTITLE0=Svarny sohaj
TTITLE1=Neni v tem Mistrine
TTITLE2=Sobotenka ide
TTITLE3=Sbohem nasej lasce
TTITLE4=Velka laska
TTITLE5=Slavicek
TTITLE6=Hallelujah
TTITLE7=Mikulecku dedinu
TTITLE8=Ja ti povim
TTITLE9=Dobry vecer frajarecko
TTITLE10=Milocke Sidleny
TTITLE11=Zasvitil mesic
TTITLE12=Ked sa divca vydavalo
TTITLE13=Smìs-Na hore, Dybych ja,Kone vrane,Az pomasirujem,A dze ides
EXTD=
EXTT0=
EXTT1=
EXTT2=
EXTT3=
EXTT4=
EXTT5=
EXTT6=
EXTT7=
EXTT8=
EXTT9=
EXTT10=
EXTT11=
EXTT12=
EXTT13=
PLAYORDER=
